<svg width="18" height="18" viewBox="0 0 18 18" fill="none" xmlns="http://www.w3.org/2000/svg">
<path d="M16.0605 1.12968H14.6109V0.527344C14.6109 0.236109 14.3748 0 14.0836 0C13.7924 0 13.5563 0.236109 13.5563 0.527344V1.12968H11.2219V0.527344C11.2219 0.236109 10.9858 0 10.6945 0C10.4033 0 10.1672 0.236109 10.1672 0.527344V1.12968H7.83281V0.527344C7.83281 0.236109 7.5967 0 7.30547 0C7.01423 0 6.77813 0.236109 6.77813 0.527344V1.12968H4.44375V0.527344C4.44375 0.236109 4.20764 0 3.91641 0C3.62517 0 3.38906 0.236109 3.38906 0.527344V1.12968H1.93943C0.870047 1.12968 0 1.99969 0 3.06914V16.0605C0 17.13 0.870047 18 1.93943 18H16.0605C17.1299 18 18 17.13 18 16.0605V3.06914C18 1.99969 17.1299 1.12968 16.0605 1.12968ZM1.93943 2.18436H3.38906V2.78673C3.38906 3.07796 3.62517 3.31407 3.91641 3.31407C4.20764 3.31407 4.44375 3.07796 4.44375 2.78673V2.18436H6.77805V2.78673C6.77805 3.07796 7.01416 3.31407 7.3054 3.31407C7.59663 3.31407 7.83274 3.07796 7.83274 2.78673V2.18436H10.1671V2.78673C10.1671 3.07796 10.4032 3.31407 10.6945 3.31407C10.9857 3.31407 11.2218 3.07796 11.2218 2.78673V2.18436H13.5562V2.78673C13.5562 3.07796 13.7923 3.31407 14.0835 3.31407C14.3748 3.31407 14.6109 3.07796 14.6109 2.78673V2.18436H16.0604C16.5484 2.18436 16.9453 2.58128 16.9453 3.06914V4.51874H1.05469V3.06914C1.05469 2.58128 1.4516 2.18436 1.93943 2.18436ZM16.0605 16.9453H1.93943C1.4516 16.9453 1.05469 16.5484 1.05469 16.0605V5.57343H16.9453V16.0605C16.9453 16.5484 16.5484 16.9453 16.0605 16.9453Z" fill="#D5A353"/>
<path d="M5.32849 7.34298H3.06911C2.77787 7.34298 2.54176 7.57909 2.54176 7.87032V10.1297C2.54176 10.4209 2.77787 10.657 3.06911 10.657H5.32853C5.61976 10.657 5.85587 10.4209 5.85587 10.1297V7.87032C5.85584 7.57909 5.61976 7.34298 5.32849 7.34298ZM4.80115 9.60233H3.59641V8.39767H4.80115V9.60233Z" fill="#D5A353"/>
<path d="M14.9308 7.34298H12.6715C12.3802 7.34298 12.1441 7.57909 12.1441 7.87032V10.1297C12.1441 10.4209 12.3802 10.657 12.6715 10.657H14.9308C15.2221 10.657 15.4582 10.4209 15.4582 10.1297V7.87032C15.4582 7.57909 15.2221 7.34298 14.9308 7.34298ZM14.4035 9.60233H13.1988V8.39767H14.4035V9.60233Z" fill="#D5A353"/>
<path d="M5.32849 11.8617H3.06911C2.77787 11.8617 2.54176 12.0978 2.54176 12.3891V14.6484C2.54176 14.9396 2.77787 15.1758 3.06911 15.1758H5.32853C5.61976 15.1758 5.85587 14.9396 5.85587 14.6484V12.3891C5.85584 12.0978 5.61976 11.8617 5.32849 11.8617ZM4.80115 14.1211H3.59641V12.9164H4.80115V14.1211Z" fill="#D5A353"/>
<path d="M14.9308 11.8617H12.6715C12.3802 11.8617 12.1441 12.0978 12.1441 12.3891V14.6484C12.1441 14.9396 12.3802 15.1758 12.6715 15.1758H14.9308C15.2221 15.1758 15.4582 14.9396 15.4582 14.6484V12.3891C15.4582 12.0978 15.2221 11.8617 14.9308 11.8617ZM14.4035 14.1211H13.1988V12.9164H14.4035V14.1211Z" fill="#D5A353"/>
<path d="M10.1297 11.8617H7.87025C7.57902 11.8617 7.34291 12.0978 7.34291 12.3891V14.6484C7.34291 14.9396 7.57902 15.1758 7.87025 15.1758H10.1297C10.4209 15.1758 10.657 14.9396 10.657 14.6484V12.3891C10.657 12.0978 10.4209 11.8617 10.1297 11.8617ZM9.60233 14.1211H8.3976V12.9164H9.60233V14.1211Z" fill="#D5A353"/>
<path d="M9.82529 7.82835L8.60066 9.05305L8.17471 8.6271C7.9688 8.42115 7.63488 8.42115 7.42894 8.6271C7.22299 8.83304 7.22299 9.16692 7.42894 9.37287L8.22779 10.1717C8.32669 10.2706 8.46081 10.3262 8.60066 10.3262C8.74055 10.3262 8.87467 10.2706 8.97356 10.1717L10.5711 8.57412C10.777 8.36817 10.777 8.03429 10.5711 7.82835C10.3651 7.6224 10.0312 7.6224 9.82529 7.82835Z" fill="#D5A353"/>
</svg>
