<svg width="16" height="13" viewBox="0 0 16 13" fill="none" xmlns="http://www.w3.org/2000/svg">
<path d="M13.359 9.592C15.06 8.074 16 6.354 16 6.354C16 6.354 13 0.854 8 0.854C7.03959 0.857307 6.09005 1.05742 5.21 1.442L5.98 2.213C6.62744 1.97715 7.31095 1.85568 8 1.854C10.12 1.854 11.879 3.022 13.168 4.311C13.7884 4.93469 14.3445 5.61913 14.828 6.354C14.77 6.441 14.706 6.537 14.633 6.642C14.298 7.122 13.803 7.762 13.168 8.397C13.003 8.562 12.831 8.725 12.651 8.883L13.359 9.592Z" fill="#AAAAAA"/>
<path d="M11.297 7.53C11.5202 6.90584 11.5615 6.23115 11.4162 5.58442C11.2709 4.93769 10.9449 4.34553 10.4762 3.87682C10.0075 3.40811 9.41531 3.08214 8.76858 2.93683C8.12185 2.79152 7.44716 2.83285 6.823 3.056L7.646 3.879C8.03031 3.82399 8.42215 3.85924 8.79047 3.98196C9.15879 4.10468 9.49347 4.31149 9.76799 4.58601C10.0425 4.86053 10.2493 5.19521 10.372 5.56353C10.4948 5.93185 10.53 6.32369 10.475 6.708L11.297 7.53ZM8.354 8.829L9.176 9.651C8.55184 9.87416 7.87715 9.91548 7.23042 9.77017C6.58369 9.62486 5.99153 9.29889 5.52282 8.83018C5.05411 8.36147 4.72814 7.76931 4.58283 7.12258C4.43752 6.47585 4.47885 5.80116 4.702 5.177L5.525 6C5.46999 6.38431 5.50524 6.77615 5.62796 7.14447C5.75068 7.51279 5.95749 7.84747 6.23201 8.12199C6.50653 8.39651 6.84121 8.60332 7.20953 8.72604C7.57785 8.84876 7.96969 8.88401 8.354 8.829Z" fill="#AAAAAA"/>
<path d="M3.35 3.824C3.17 3.984 2.997 4.146 2.832 4.311C2.21165 4.93469 1.65552 5.61913 1.172 6.354L1.367 6.642C1.702 7.122 2.197 7.762 2.832 8.397C4.121 9.686 5.881 10.854 8 10.854C8.716 10.854 9.39 10.721 10.02 10.494L10.79 11.266C9.90994 11.6505 8.9604 11.8507 8 11.854C3 11.854 0 6.354 0 6.354C0 6.354 0.939 4.633 2.641 3.116L3.349 3.825L3.35 3.824ZM13.646 12.708L1.646 0.708L2.354 0L14.354 12L13.646 12.708Z" fill="#AAAAAA"/>
</svg>
