<svg width="142" height="63" viewBox="0 0 142 63" fill="none" xmlns="http://www.w3.org/2000/svg">
<circle cx="31.5" cy="31.5" r="31.5" fill="#21AFFF"/>
<path d="M38.3 28.175L34.05 23.975L35.45 22.575C35.8333 22.1917 36.3043 22 36.863 22C37.4217 22 37.8923 22.1917 38.275 22.575L39.675 23.975C40.0583 24.3583 40.2583 24.821 40.275 25.363C40.2917 25.905 40.1083 26.3673 39.725 26.75L38.3 28.175ZM36.85 29.65L26.25 40.25H22V36L32.6 25.4L36.85 29.65Z" fill="white"/>
<circle cx="110.5" cy="31.5" r="31.5" fill="#FF4545"/>
<path d="M109.462 24.1429H112.538C112.538 23.7261 112.376 23.3264 112.088 23.0317C111.799 22.737 111.408 22.5714 111 22.5714C110.592 22.5714 110.201 22.737 109.912 23.0317C109.624 23.3264 109.462 23.7261 109.462 24.1429ZM107.923 24.1429C107.923 23.3093 108.247 22.5099 108.824 21.9205C109.401 21.3311 110.184 21 111 21C111.816 21 112.599 21.3311 113.176 21.9205C113.753 22.5099 114.077 23.3093 114.077 24.1429H120.231C120.435 24.1429 120.63 24.2256 120.775 24.373C120.919 24.5203 121 24.7202 121 24.9286C121 25.137 120.919 25.3368 120.775 25.4842C120.63 25.6315 120.435 25.7143 120.231 25.7143H119.363L117.509 39.6026C117.383 40.5438 116.928 41.4065 116.228 42.0312C115.527 42.6558 114.628 43 113.698 43H108.302C107.372 43 106.473 42.6558 105.772 42.0312C105.072 41.4065 104.617 40.5438 104.491 39.6026L102.637 25.7143H101.769C101.565 25.7143 101.37 25.6315 101.225 25.4842C101.081 25.3368 101 25.137 101 24.9286C101 24.7202 101.081 24.5203 101.225 24.373C101.37 24.2256 101.565 24.1429 101.769 24.1429H107.923ZM109.462 29.6429C109.462 29.4345 109.38 29.2346 109.236 29.0873C109.092 28.9399 108.896 28.8571 108.692 28.8571C108.488 28.8571 108.293 28.9399 108.148 29.0873C108.004 29.2346 107.923 29.4345 107.923 29.6429V37.5C107.923 37.7084 108.004 37.9082 108.148 38.0556C108.293 38.2029 108.488 38.2857 108.692 38.2857C108.896 38.2857 109.092 38.2029 109.236 38.0556C109.38 37.9082 109.462 37.7084 109.462 37.5V29.6429ZM113.308 28.8571C113.104 28.8571 112.908 28.9399 112.764 29.0873C112.62 29.2346 112.538 29.4345 112.538 29.6429V37.5C112.538 37.7084 112.62 37.9082 112.764 38.0556C112.908 38.2029 113.104 38.2857 113.308 38.2857C113.512 38.2857 113.707 38.2029 113.852 38.0556C113.996 37.9082 114.077 37.7084 114.077 37.5V29.6429C114.077 29.4345 113.996 29.2346 113.852 29.0873C113.707 28.9399 113.512 28.8571 113.308 28.8571Z" fill="white"/>
</svg>
