<svg width="26" height="26" viewBox="0 0 26 26" fill="none" xmlns="http://www.w3.org/2000/svg">
<path fill-rule="evenodd" clip-rule="evenodd" d="M4.95666 4.95623C2.82343 7.08946 1.625 9.98273 1.625 12.9996C1.625 16.0164 2.82343 18.9097 4.95666 21.0429C7.08989 23.1761 9.98316 24.3746 13 24.3746C16.0168 24.3746 18.9101 23.1761 21.0433 21.0429C23.1766 18.9097 24.375 16.0164 24.375 12.9996C24.375 9.98273 23.1766 7.08946 21.0433 4.95623C18.9101 2.823 16.0168 1.62457 13 1.62457C9.98316 1.62457 7.08989 2.823 4.95666 4.95623ZM22.1924 22.192C19.7544 24.6299 16.4478 25.9996 13 25.9996C9.55218 25.9996 6.24558 24.6299 3.80761 22.192C1.36964 19.754 -3.45791e-06 16.4474 -3.11998e-06 12.9996C-2.61307e-06 9.55176 1.36964 6.24515 3.80761 3.80718C6.24558 1.36921 9.55218 -0.000430519 13 -0.000430688C16.4478 -0.000430519 19.7544 1.36921 22.1924 3.80718C24.6304 6.24515 26 9.55176 26 12.9996C26 16.4474 24.6304 19.754 22.1924 22.192ZM18.6878 12.1286C18.9034 12.1287 19.1101 12.2145 19.2625 12.3671C19.4148 12.5197 19.5003 12.7265 19.5002 12.9421C19.5 13.1577 19.4142 13.3644 19.2617 13.5168C19.1091 13.6691 18.9023 13.7547 18.6866 13.7545L9.27363 13.7545L12.4542 16.9351C12.6066 17.0874 12.6922 17.2941 12.6922 17.5096C12.6922 17.7251 12.6066 17.9317 12.4542 18.0841C12.3018 18.2365 12.0952 18.3221 11.8797 18.3221C11.6642 18.3221 11.4575 18.2365 11.3052 18.0841L6.73768 13.5166C6.58531 13.3643 6.49971 13.1576 6.49971 12.9421C6.49971 12.7266 6.58531 12.52 6.73768 12.3676L11.3052 7.80013C11.4575 7.64775 11.6642 7.56215 11.8797 7.56215C12.0952 7.56215 12.3018 7.64775 12.4542 7.80013C12.6066 7.9525 12.6922 8.15916 12.6922 8.37465C12.6922 8.59014 12.6066 8.7968 12.4542 8.94917L9.27363 12.1297L18.6878 12.1286Z" fill="black"/>
</svg>
