<svg width="8" height="5" viewBox="0 0 8 5" fill="none" xmlns="http://www.w3.org/2000/svg">
<path d="M0.210473 0.222057C0.276757 0.151666 0.355489 0.0958203 0.442164 0.0577167C0.528838 0.0196132 0.621752 0 0.715588 0C0.809423 0 0.902338 0.0196132 0.989012 0.0577167C1.07569 0.0958203 1.15442 0.151666 1.2207 0.222057L4.00062 3.1682L6.78055 0.222057C6.91451 0.0800823 7.0962 0.000321518 7.28566 0.000321518C7.47511 0.000321518 7.65681 0.0800823 7.79078 0.222057C7.92474 0.364032 8 0.556591 8 0.757374C8 0.958156 7.92474 1.15072 7.79078 1.29269L4.50216 4.77794C4.43587 4.84833 4.35714 4.90418 4.27047 4.94228C4.18379 4.98039 4.09088 5 3.99704 5C3.90321 5 3.81029 4.98039 3.72362 4.94228C3.63694 4.90418 3.55821 4.84833 3.49193 4.77794L0.203308 1.29269C-0.068952 1.00415 -0.0689519 0.51819 0.210473 0.222057Z" fill="#616161"/>
</svg>
