<svg width="25" height="25" viewBox="0 0 25 25" fill="none" xmlns="http://www.w3.org/2000/svg">
<path fill-rule="evenodd" clip-rule="evenodd" d="M12.4998 0.000153355C13.0604 0.000153312 13.5149 0.454633 13.5149 1.01526L13.5149 11.4848L23.9844 11.4848C24.545 11.4848 24.9995 11.9393 24.9995 12.4999C24.9995 13.0605 24.545 13.515 23.9844 13.515L13.5149 13.515L13.5149 23.9845C13.5149 24.5452 13.0604 24.9996 12.4998 24.9996C11.9391 24.9996 11.4846 24.5452 11.4846 23.9845L11.4846 13.515L1.01512 13.515C0.454492 13.515 1.23203e-05 13.0605 1.20636e-05 12.4999C1.31332e-05 11.9393 0.454491 11.4848 1.01512 11.4848L11.4846 11.4848L11.4846 1.01526C11.4846 0.454633 11.9391 0.000153312 12.4998 0.000153355Z" fill="#D5A353"/>
</svg>
