<svg width="17" height="17" viewBox="0 0 17 17" fill="none" xmlns="http://www.w3.org/2000/svg">
<path d="M16.32 1.53H12.75V0.17C12.75 0.0765 12.6735 0 12.58 0H11.39C11.2965 0 11.22 0.0765 11.22 0.17V1.53H5.78V0.17C5.78 0.0765 5.7035 0 5.61 0H4.42C4.3265 0 4.25 0.0765 4.25 0.17V1.53H0.68C0.303875 1.53 0 1.83388 0 2.21V16.32C0 16.6961 0.303875 17 0.68 17H16.32C16.6961 17 17 16.6961 17 16.32V2.21C17 1.83388 16.6961 1.53 16.32 1.53ZM15.47 15.47H1.53V7.395H15.47V15.47ZM1.53 5.95V3.06H4.25V4.08C4.25 4.1735 4.3265 4.25 4.42 4.25H5.61C5.7035 4.25 5.78 4.1735 5.78 4.08V3.06H11.22V4.08C11.22 4.1735 11.2965 4.25 11.39 4.25H12.58C12.6735 4.25 12.75 4.1735 12.75 4.08V3.06H15.47V5.95H1.53Z" fill="#D5A353"/>
</svg>
