<svg width="13" height="13" viewBox="0 0 13 13" fill="none" xmlns="http://www.w3.org/2000/svg">
<path fill-rule="evenodd" clip-rule="evenodd" d="M5.88095 1.2381C4.64959 1.2381 3.46866 1.72725 2.59796 2.59796C1.72725 3.46866 1.2381 4.64959 1.2381 5.88095C1.2381 7.11231 1.72725 8.29324 2.59796 9.16395C3.46866 10.0347 4.64959 10.5238 5.88095 10.5238C7.10671 10.5238 8.28249 10.0391 9.15204 9.17582C9.15678 9.17076 9.16162 9.16576 9.16656 9.16083C9.17104 9.15636 9.17557 9.15197 9.18015 9.14767C10.0407 8.27856 10.5238 7.10466 10.5238 5.88095C10.5238 4.64959 10.0347 3.46866 9.16395 2.59796C8.29324 1.72725 7.11231 1.2381 5.88095 1.2381ZM10.4559 9.57626C11.2971 8.53498 11.7619 7.23193 11.7619 5.88095C11.7619 4.32123 11.1423 2.82538 10.0394 1.72249C8.93652 0.619599 7.44068 0 5.88095 0C4.32123 0 2.82538 0.619599 1.72249 1.72249C0.619599 2.82538 0 4.32123 0 5.88095C0 7.44068 0.619599 8.93652 1.72249 10.0394C2.82538 11.1423 4.32123 11.7619 5.88095 11.7619C7.23394 11.7619 8.53887 11.2957 9.58092 10.4522L11.9428 12.8183C12.1844 13.0603 12.5763 13.0606 12.8183 12.8191C13.0603 12.5775 13.0606 12.1856 12.8191 11.9436L10.4559 9.57626Z" fill="#4B4B4B"/>
</svg>
