<svg width="15" height="16" viewBox="0 0 15 16" fill="none" xmlns="http://www.w3.org/2000/svg">
<path d="M13.5 11.4286H15V12.9524H0V11.4286H1.5V6.09524C1.5 4.47868 2.13214 2.92833 3.25736 1.78525C4.38258 0.642175 5.9087 0 7.5 0C9.0913 0 10.6174 0.642175 11.7426 1.78525C12.8679 2.92833 13.5 4.47868 13.5 6.09524V11.4286ZM12 11.4286V6.09524C12 4.88282 11.5259 3.72006 10.682 2.86275C9.83807 2.00544 8.69347 1.52381 7.5 1.52381C6.30653 1.52381 5.16193 2.00544 4.31802 2.86275C3.47411 3.72006 3 4.88282 3 6.09524V11.4286H12ZM5.25 14.4762H9.75V16H5.25V14.4762Z" fill="#1E1E1E"/>
</svg>
