<svg width="12" height="17" viewBox="0 0 12 17" fill="none" xmlns="http://www.w3.org/2000/svg">
<path d="M6 1.21429C6.59334 1.21429 7.17336 1.39233 7.66671 1.7259C8.16006 2.05946 8.54458 2.53358 8.77164 3.08828C8.9987 3.64299 9.05811 4.25337 8.94236 4.84224C8.8266 5.43111 8.54088 5.97202 8.12132 6.39657C7.70176 6.82113 7.16721 7.11025 6.58527 7.22738C6.00333 7.34452 5.40013 7.2844 4.85195 7.05463C4.30377 6.82487 3.83524 6.43577 3.50559 5.93655C3.17595 5.43733 3 4.85041 3 4.25C3 3.44488 3.31607 2.67273 3.87868 2.10343C4.44129 1.53412 5.20435 1.21429 6 1.21429ZM6 0C5.16932 0 4.35729 0.249258 3.66661 0.716254C2.97592 1.18325 2.43759 1.84701 2.11971 2.6236C1.80182 3.40018 1.71864 4.25471 1.8807 5.07913C2.04276 5.90355 2.44277 6.66083 3.03015 7.2552C3.61753 7.84958 4.3659 8.25435 5.18062 8.41834C5.99534 8.58232 6.83982 8.49816 7.60727 8.17649C8.37472 7.85482 9.03067 7.31008 9.49217 6.61117C9.95368 5.91226 10.2 5.09057 10.2 4.25C10.2 3.12283 9.7575 2.04183 8.96985 1.2448C8.1822 0.447767 7.11391 0 6 0ZM12 17H10.8V13.9643C10.8 13.5656 10.7224 13.1709 10.5716 12.8026C10.4209 12.4343 10.1999 12.0996 9.92132 11.8177C9.64275 11.5358 9.31203 11.3122 8.94805 11.1597C8.58407 11.0071 8.19397 10.9286 7.8 10.9286H4.2C3.40435 10.9286 2.64129 11.2484 2.07868 11.8177C1.51607 12.387 1.2 13.1592 1.2 13.9643V17H0V13.9643C0 12.8371 0.442499 11.7561 1.23015 10.9591C2.0178 10.1621 3.08609 9.71429 4.2 9.71429H7.8C8.91391 9.71429 9.9822 10.1621 10.7698 10.9591C11.5575 11.7561 12 12.8371 12 13.9643V17Z" fill="#D5A353"/>
</svg>
