<svg width="10" height="10" viewBox="0 0 10 10" fill="none" xmlns="http://www.w3.org/2000/svg">
<path fill-rule="evenodd" clip-rule="evenodd" d="M5 1C2.79089 1 1 2.79089 1 5C1 7.2091 2.79089 9 5 9H5.00066C5.52585 9.00069 6.04599 8.89759 6.5312 8.69661C7.0164 8.49564 7.45711 8.20075 7.82798 7.82891C8.02299 7.63339 8.33957 7.63297 8.53509 7.82798C8.73061 8.02299 8.73102 8.33957 8.53602 8.53509C8.07209 9.00023 7.52082 9.3691 6.91387 9.62049C6.30693 9.87189 5.65629 10.0009 4.99934 10L5 9.5V10C4.99978 10 4.99956 10 4.99934 10C2.23825 9.99964 0 7.76117 0 5C0 2.23861 2.23861 0 5 0C6.38047 0 7.63111 0.560284 8.5355 1.46439L8.53555 1.46445C8.66165 1.59054 8.82826 1.76708 9 1.9527V1C9 0.723857 9.22386 0.5 9.5 0.5C9.77614 0.5 10 0.723857 10 1V3.25C10 3.52614 9.77614 3.75 9.5 3.75H7.25C6.97386 3.75 6.75 3.52614 6.75 3.25C6.75 2.97386 6.97386 2.75 7.25 2.75H8.37488C8.17003 2.52694 7.96815 2.31126 7.8285 2.17161C7.82848 2.17159 7.82846 2.17157 7.82845 2.17155M5 1C6.10451 1 7.10384 1.44719 7.82845 2.17155L5 1Z" fill="white"/>
</svg>
