<svg width="43" height="52" viewBox="0 0 43 52" fill="none" xmlns="http://www.w3.org/2000/svg">
<path fill-rule="evenodd" clip-rule="evenodd" d="M17.8699 28.2968L19.2873 39.2748C18.7358 39.4527 18.1844 39.7068 17.683 40.0371C16.204 41.028 15.2515 42.5271 14.9005 44.1533C14.5746 45.7794 14.8253 47.5326 15.803 49.0571C16.7555 50.5562 18.2345 51.5218 19.8388 51.8521C21.4682 52.2078 23.1979 51.9283 24.6769 50.9628C26.1558 49.9719 27.1084 48.4728 27.4594 46.8466C27.8103 45.2205 27.5346 43.4673 26.5569 41.9682C25.6044 40.4436 24.1254 39.4781 22.5211 39.1478C22.2537 39.08 21.9946 39.0377 21.744 39.0208L23.1979 31.0171L15.3768 8.98782L17.7072 27.0364C17.8843 26.754 18.201 26.5706 18.5604 26.5706C19.1118 26.5706 19.5631 27.0025 19.5631 27.5615C19.5631 28.1205 19.1118 28.5779 18.5604 28.5779C18.2935 28.5779 18.05 28.4707 17.8699 28.2968ZM20.29 49.7178C19.2372 49.4891 18.2596 48.8539 17.6329 47.8375C16.9811 46.8466 16.8056 45.6778 17.0312 44.6106C17.2569 43.5435 17.8836 42.5526 18.8612 41.8919C19.8388 41.2567 20.9919 41.0534 22.0699 41.2821C23.1227 41.5108 24.1003 42.1714 24.727 43.1624C25.3788 44.1533 25.5542 45.3221 25.3286 46.3892C25.103 47.4818 24.4763 48.4728 23.4987 49.108C22.5211 49.7686 21.3679 49.9465 20.29 49.7178Z" fill="#3C3C3C"/>
<path fill-rule="evenodd" clip-rule="evenodd" d="M18.3642 0.641987C19.9287 6.44051 13.9527 11.9891 8.41265 15.7881C7.72014 15.1883 6.87374 14.4385 5.74522 13.4637C7.77143 11.6642 9.74637 10.3145 11.6956 8.61494C15.2351 5.51573 16.4406 4.64097 18.3642 0.641987ZM0 23.1112C0.0256483 19.3622 1.64151 17.2877 4.79625 14.3385C5.89912 15.2133 6.74552 15.8881 7.46367 16.4379C3.92421 18.9123 3.12909 20.262 0 23.1112Z" fill="#D5A353"/>
<path fill-rule="evenodd" clip-rule="evenodd" d="M22.9435 0C25.8291 9.14565 20.6197 14.521 13.3675 20.1765C11.7332 18.648 11.2735 18.2149 9.97116 17.043C16.7638 11.1327 20.5176 9.32398 22.9435 0ZM7.5197 24.5837C2.23373 28.6343 1.6464 32.4811 1.26336 35.3088C-2.33723 28.3286 2.31035 24.0233 8.26026 18.5715C8.56669 18.2998 8.86461 18.0281 9.15402 17.7563C10.584 18.9282 11.0692 19.2848 12.8057 20.6096C11.1203 21.8833 9.33277 23.208 7.5197 24.5837Z" fill="#D5A353"/>
<path fill-rule="evenodd" clip-rule="evenodd" d="M26.2578 5.1359C27.069 8.05964 27.3478 11.6135 26.1817 14.6381C24.534 18.9481 21.2133 21.7962 17.8672 24.4175C16.2955 22.9556 15.1548 21.8718 14.2929 21.0401C14.5126 20.9056 14.7492 20.7628 15.0027 20.6116C24.2805 14.7641 25.0157 10.1768 26.2578 5.1359ZM17.8418 24.4175C16.0674 23.0816 14.7746 22.0987 13.7859 21.3677C6.94164 25.7786 2.80972 29.5089 3.24066 36.9442C3.49415 41.5315 6.40931 46.1188 10.9722 48.7905C9.90751 46.6733 8.43725 41.5315 8.18376 39.2127C7.39793 31.9285 12.6452 28.4755 17.8418 24.4175Z" fill="#AD6D07"/>
<path fill-rule="evenodd" clip-rule="evenodd" d="M29.4617 33.6165L5.13578 14.7657L20.2337 32.8268L27.9494 35.6289C27.8468 35.8667 27.7528 36.1129 27.6674 36.3676C27.1291 37.947 27.206 39.7302 28.0262 41.3351C28.8209 42.9399 30.2051 44.0863 31.7943 44.5957C33.4092 45.1307 35.2036 45.0543 36.8185 44.2646C38.4333 43.4494 39.5868 42.0738 40.0995 40.4944C40.6378 38.915 40.5609 37.1319 39.7663 35.5015C38.946 33.8967 37.5618 32.7758 35.9725 32.2409C34.3833 31.7059 32.589 31.7823 30.9484 32.5975C30.3845 32.8522 29.8975 33.2089 29.4617 33.6165ZM31.9481 34.559C33.0247 34.024 34.2039 33.9731 35.2548 34.3297C36.3058 34.6864 37.2286 35.4251 37.7669 36.495C38.3052 37.5649 38.3564 38.7367 37.9976 39.7811C37.6643 40.8256 36.8953 41.7427 35.8187 42.2776C34.7422 42.8126 33.563 42.8635 32.5121 42.5069C31.4611 42.1502 30.5383 41.4115 30 40.3416C29.4617 39.2717 29.4104 38.0999 29.7693 37.0554C30.1282 36.011 30.8715 35.0939 31.9481 34.559ZM18.3369 26.4073C17.773 26.4073 17.3116 26.8404 17.3116 27.4008C17.3116 27.9612 17.773 28.4198 18.3369 28.4198C18.9008 28.4198 19.3622 27.9612 19.3622 27.4008C19.3622 26.8404 18.9008 26.4073 18.3369 26.4073Z" fill="#3C3C3C"/>
<path d="M41.6125 35.972C42.0055 35.9513 42.3425 36.2205 42.3706 36.5726C42.3706 36.9246 42.0336 37.2145 41.6406 37.2353L38.6364 37.2145C38.2152 37.2145 37.8783 36.9453 37.8783 36.5933C37.8503 36.2412 38.1872 35.9513 38.5803 35.9513L41.6125 35.972Z" fill="white"/>
</svg>
