<svg width="18" height="18" viewBox="0 0 18 18" fill="none" xmlns="http://www.w3.org/2000/svg">
<path fill-rule="evenodd" clip-rule="evenodd" d="M7.49085 0.593535C7.89968 0.211764 8.43976 0 9 0C9.56021 0 10.1003 0.21174 10.5091 0.593471M10.5091 0.593471L16.7761 6.44348C16.7761 6.44346 16.7761 6.44349 16.7761 6.44348C17.1622 6.8038 17.4702 7.23859 17.6808 7.72131C17.8914 8.20405 18 8.72441 18 9.25048C18 9.25046 18 9.25049 18 9.25048V15.8209C18 16.4008 17.7667 16.9558 17.3534 17.3639C16.9404 17.7719 16.3815 18 15.8 18H2.2C1.6185 18 1.0596 17.7719 0.646556 17.3639C0.233305 16.9558 1.66577e-08 16.4008 1.66577e-08 15.8209V9.25053C1.66577e-08 9.25051 1.66577e-08 9.25055 1.66577e-08 9.25053C-4.91274e-05 8.72447 0.108642 8.20405 0.319232 7.72131C0.529813 7.23859 0.837757 6.80385 1.22387 6.44353C1.22385 6.44355 1.22388 6.44351 1.22387 6.44353L7.49085 0.593535M9 1C8.6915 1 8.3958 1.11669 8.17335 1.32442L1.90623 7.17454C1.61955 7.44206 1.3915 7.76428 1.23581 8.12115C1.08014 8.47801 0.999958 8.86226 1 9.25042V15.8209C1 16.1316 1.12491 16.4308 1.34928 16.6525C1.57386 16.8743 1.87976 17 2.2 17H15.8C16.1202 17 16.4261 16.8743 16.6507 16.6525C16.8751 16.4308 17 16.1316 17 15.8209V9.25048C17 8.86231 16.9199 8.47801 16.7642 8.12115C16.6085 7.76428 16.3805 7.44212 16.0938 7.17459L9.82672 1.32448C9.60427 1.11676 9.3085 1 9 1Z" fill="#D5A353"/>
</svg>
