<svg width="20" height="19" viewBox="0 0 20 19" fill="none" xmlns="http://www.w3.org/2000/svg">
<path fill-rule="evenodd" clip-rule="evenodd" d="M7.32776 0.0177783C7.55539 -0.0444935 7.79556 0.0608676 7.9039 0.270521C8.0998 0.649629 8.39882 0.96894 8.76875 1.19235C9.13873 1.4158 9.56484 1.53434 9.99988 1.53423H10.0001C10.4352 1.53434 10.8613 1.4158 11.2313 1.19235C11.6012 0.96894 11.9002 0.649629 12.0961 0.270521C12.2044 0.0608676 12.4446 -0.0444935 12.6722 0.0177783C14.2149 0.439801 15.6325 1.22163 16.8052 2.29788C16.9696 2.44871 17.0141 2.69017 16.9144 2.88972C16.7375 3.24373 16.656 3.63609 16.6772 4.02938C16.6984 4.42267 16.8217 4.80451 17.0359 5.13834C17.2501 5.47222 17.5482 5.74716 17.9022 5.93615C18.2564 6.12516 18.6543 6.22165 19.0578 6.21593C19.2781 6.21281 19.4745 6.35429 19.5414 6.56427C19.8462 7.52242 20.0009 8.52096 20 9.52533L19.5 9.52487H20C20 9.52502 20 9.52518 20 9.52533C20 10.2056 19.9299 10.8706 19.7967 11.5131C19.7449 11.7633 19.5126 11.9342 19.2583 11.9092C18.7914 11.8633 18.3215 11.9559 17.909 12.1745C17.4967 12.393 17.161 12.7272 16.944 13.1333C16.727 13.5393 16.6382 13.9992 16.6882 14.4545C16.7382 14.9098 16.9249 15.3408 17.2256 15.6924C17.3938 15.8889 17.3843 16.1813 17.2036 16.3665C16.007 17.5934 14.5092 18.4934 12.8562 18.9797C12.5966 19.0561 12.3234 18.9121 12.2397 18.6548C12.0884 18.19 11.7908 17.7833 11.3884 17.494C10.986 17.2047 10.4998 17.0483 10 17.0483C9.5002 17.0483 9.01403 17.2047 8.61157 17.494C8.20921 17.7833 7.91165 18.19 7.76034 18.6548C7.67658 18.9121 7.40333 19.0561 7.14375 18.9797C5.49074 18.4933 3.99288 17.5931 2.79632 16.366C2.61574 16.1808 2.60621 15.8884 2.77435 15.6919C3.07506 15.3404 3.26183 14.9093 3.31183 14.454C3.36184 13.9988 3.27298 13.5388 3.05601 13.1328C2.83899 12.7268 2.50333 12.3926 2.09096 12.174C1.6785 11.9554 1.20865 11.8629 0.741715 11.9087C0.487343 11.9337 0.255085 11.7628 0.203244 11.5125C0.0677632 10.8584 -0.000334636 10.1925 1.23636e-06 9.52487H0.5L1.29596e-06 9.5246C2.87439e-05 8.49418 0.160154 7.49917 0.458788 6.56381C0.524957 6.35656 0.717545 6.21588 0.935101 6.21588H0.975001L0.975159 6.21588C1.3759 6.21601 1.7697 6.11544 2.11929 5.92414C2.46885 5.73286 2.76233 5.4574 2.97264 5.12442C3.18293 4.7915 3.30332 4.41182 3.32303 4.02121C3.34274 3.63061 3.26115 3.24122 3.08557 2.88967C2.9859 2.69013 3.03046 2.4487 3.1948 2.29788C4.36749 1.22163 5.78512 0.439801 7.32776 0.0177783ZM4.13389 2.80266C4.27921 3.20817 4.34358 3.63917 4.32176 4.0716C4.29335 4.63465 4.11982 5.18079 3.81811 5.65845C3.51644 6.13606 3.09676 6.52919 2.59933 6.80139C2.20106 7.01933 1.76324 7.15412 1.31294 7.19909C1.10874 7.93968 1 8.71948 1 9.52487V9.52514C0.999757 9.98562 1.03578 10.4452 1.10766 10.8998C1.61305 10.9196 2.10967 11.0522 2.55922 11.2904C3.14592 11.6014 3.62633 12.0784 3.93796 12.6615C4.24964 13.2447 4.37794 13.9069 4.30586 14.5632C4.25096 15.0629 4.08185 15.5412 3.81421 15.9632C4.72774 16.8154 5.81296 17.4698 6.99972 17.8835C7.23886 17.4089 7.59086 16.9962 8.02787 16.6821C8.60132 16.2698 9.29187 16.0483 10 16.0483C10.7081 16.0483 11.3987 16.2698 11.9721 16.6821C12.4091 16.9962 12.7611 17.4089 13.0003 17.8835C14.187 17.4699 15.2722 16.8157 16.1858 15.9636C15.9181 15.5417 15.749 15.0634 15.6941 14.5637C15.6221 13.9074 15.7504 13.2452 16.062 12.662C16.3737 12.0789 16.8541 11.6018 17.4408 11.2909C17.8903 11.0527 18.387 10.92 18.8924 10.9003C18.9632 10.4522 19 9.99279 19 9.52487V9.52441C19.0007 8.7387 18.8953 7.95685 18.6869 7.19938C18.2484 7.15558 17.8216 7.02662 17.4314 6.81835C16.9276 6.54946 16.5014 6.15714 16.1942 5.67828C15.887 5.19936 15.7093 4.65016 15.6787 4.08324C15.6551 3.64693 15.7194 3.21183 15.8661 2.80264C14.96 2.03427 13.907 1.45156 12.7688 1.089C12.502 1.47567 12.1544 1.80305 11.7482 2.04835C11.2216 2.3664 10.6166 2.53434 10.0001 2.53423M4.13389 2.80266C5.04001 2.03428 6.09303 1.45157 7.2312 1.089C7.49803 1.47567 7.8456 1.80305 8.25177 2.04835C8.77839 2.3664 9.38338 2.53434 9.99988 2.53423M7.29789 6.85147C8.01575 6.14393 8.98787 5.74772 10 5.74772C10.5013 5.74772 10.9979 5.84503 11.4614 6.03426C11.925 6.22351 12.3466 6.50108 12.7021 6.85147C13.0576 7.20187 13.34 7.61826 13.5328 8.07704C13.7257 8.53584 13.825 9.02783 13.825 9.52487C13.825 10.0219 13.7257 10.5139 13.5328 10.9727C13.34 11.4315 13.0576 11.8479 12.7021 12.1983C12.3466 12.5487 11.925 12.8262 11.4614 13.0155C10.9979 13.2047 10.5013 13.302 10 13.302C8.98787 13.302 8.01575 12.9058 7.29789 12.1983C6.57978 11.4905 6.175 10.529 6.175 9.52487C6.175 8.52075 6.57978 7.55924 7.29789 6.85147ZM10 6.74772C9.24844 6.74772 8.5291 7.04204 7.99985 7.56368C7.47085 8.08507 7.175 8.79068 7.175 9.52487C7.175 10.2591 7.47085 10.9647 7.99985 11.4861C8.5291 12.0077 9.24844 12.302 10 12.302C10.372 12.302 10.7402 12.2298 11.0834 12.0897C11.4267 11.9495 11.7381 11.7443 12.0001 11.4861C12.2621 11.2278 12.4696 10.9217 12.611 10.5853C12.7523 10.2489 12.825 9.88856 12.825 9.52487C12.825 9.16118 12.7523 8.80088 12.611 8.46448C12.4696 8.12805 12.2621 7.8219 12.0001 7.56368C11.7381 7.30544 11.4267 7.10022 11.0834 6.96008C10.7402 6.81994 10.372 6.74772 10 6.74772Z" fill="#3C3C3C"/>
</svg>
