<svg width="14" height="13" viewBox="0 0 14 13" fill="none" xmlns="http://www.w3.org/2000/svg">
<path fill-rule="evenodd" clip-rule="evenodd" d="M5.4446 13H8.5554C10.7401 13 11.8328 13 12.6175 12.4692C12.9561 12.2402 13.2477 11.9447 13.4757 11.5996C14 10.8052 14 9.69801 14 7.48513C14 5.27152 14 4.16508 13.4757 3.37064C13.2477 3.02549 12.9561 2.73003 12.6175 2.50108C12.1135 2.15947 11.4821 2.03742 10.5154 1.99408C10.0541 1.99408 9.6572 1.6402 9.5669 1.18159C9.49789 0.845659 9.31859 0.544614 9.05929 0.329331C8.8 0.114047 8.47662 -0.00227125 8.1438 3.36055e-05H5.8562C5.1646 3.36055e-05 4.5689 0.494755 4.4331 1.18159C4.3428 1.6402 3.9459 1.99408 3.4846 1.99408C2.5186 2.03742 1.8872 2.16019 1.3825 2.50108C1.04413 2.73007 0.752762 3.02554 0.525 3.37064C0 4.16508 0 5.27152 0 7.48513C0 9.69801 4.17233e-08 10.8045 0.5243 11.5996C0.7511 11.9434 1.0423 12.2388 1.3825 12.4692C2.1672 13 3.2599 13 5.4446 13ZM7 4.53052C5.3893 4.53052 4.0831 5.85291 4.0831 7.4844C4.0831 9.11662 5.3893 10.439 7 10.439C8.6107 10.439 9.9169 9.11662 9.9169 7.48513C9.9169 5.85291 8.6107 4.53052 7 4.53052ZM7 5.71207C6.034 5.71207 5.25 6.5058 5.25 7.48513C5.25 8.46373 6.034 9.25745 7 9.25745C7.966 9.25745 8.75 8.46373 8.75 7.48513C8.75 6.5058 7.966 5.71207 7 5.71207ZM10.3054 5.1213C10.3054 4.79485 10.5665 4.53052 10.8892 4.53052H11.6662C11.9882 4.53052 12.25 4.79485 12.25 5.1213C12.2485 5.27939 12.1863 5.43041 12.0769 5.54118C11.9676 5.65196 11.8201 5.71342 11.6669 5.71207H10.8892C10.8133 5.71284 10.7379 5.69816 10.6675 5.66888C10.5971 5.63961 10.5329 5.5963 10.4787 5.54144C10.4245 5.48658 10.3813 5.42124 10.3515 5.34915C10.3218 5.27707 10.3061 5.19964 10.3054 5.1213Z" fill="#D5A353"/>
</svg>
