<svg width="41" height="13" viewBox="0 0 41 13" fill="none" xmlns="http://www.w3.org/2000/svg">
<path opacity="0.1" d="M7.5 1C4.5 1 1.875 2.26 0 4.24L7.5 13L15 4.24C13.125 2.26 10.5 1 7.5 1Z" fill="#1E1E1E"/>
<path opacity="0.3" d="M28 1L16 13H28V1Z" fill="#BBBBBB"/>
<path d="M38.8125 0H36.1875V1.3H34.875C34.3918 1.3 34 1.73652 34 2.275V12.025C34 12.5635 34.3918 13 34.875 13H40.125C40.6082 13 41 12.5635 41 12.025V2.275C41 1.73652 40.6082 1.3 40.125 1.3H38.8125V0Z" fill="#EBEBEB"/>
<path d="M34 7C34 7.5 34 11.6 34 12.1C34 12.5971 34.3918 13 34.875 13H40.125C40.6082 13 41 12.5971 41 12.1C41 11.6 41 7.5 41 7H34Z" fill="#ABABAB"/>
</svg>
